<svg width="205" height="204" viewBox="0 0 205 204" fill="none" xmlns="http://www.w3.org/2000/svg">
<path d="M202.54 122.23C201.514 121.202 200.227 120.472 198.818 120.12C197.408 119.767 195.929 119.805 194.54 120.23C179.286 124.842 163.066 125.228 147.609 121.349C132.153 117.469 118.038 109.469 106.769 98.2004C95.5009 86.9319 87.5006 72.8173 83.6212 57.3606C79.7417 41.9039 80.1284 25.6842 84.74 10.4299C85.1679 9.03995 85.2089 7.55959 84.8585 6.14806C84.5081 4.73653 83.7795 3.44723 82.7511 2.41883C81.7227 1.39043 80.4334 0.661827 79.0218 0.311389C77.6103 -0.0390484 76.1299 0.0019356 74.74 0.429933C53.6502 6.89038 35.1353 19.8379 21.83 37.4299C10.1941 52.8785 3.0965 71.2657 1.3346 90.5257C-0.427297 109.786 3.2163 129.155 11.856 146.459C20.4958 163.762 33.7894 178.314 50.2433 188.478C66.6972 198.643 85.6595 204.018 105 204C127.563 204.069 149.527 196.734 167.52 183.12C185.112 169.815 198.06 151.3 204.52 130.21C204.943 128.825 204.982 127.351 204.634 125.946C204.285 124.541 203.561 123.256 202.54 122.23ZM157.9 170.34C140.955 183.103 119.971 189.315 98.8094 187.833C77.648 186.351 57.734 177.275 42.7333 162.276C27.7327 147.276 18.6551 127.363 17.1717 106.202C15.6882 85.0405 21.8987 64.0555 34.66 47.1099C42.974 36.1305 53.7226 27.2304 66.06 21.1099C65.3571 26.0422 65.0029 31.0179 65 35.9999C65.0291 63.5735 75.9955 90.0094 95.493 109.507C114.99 129.004 141.426 139.971 169 140C173.992 139.998 178.978 139.644 183.92 138.94C177.794 151.279 168.887 162.028 157.9 170.34Z" fill="white"/>
</svg>
